<svg width="64" height="64" viewBox="0 0 64 64" fill="none" xmlns="http://www.w3.org/2000/svg">
<path d="M52.3547 21.3254C52.3894 21.7921 52.3894 22.2561 52.3894 22.7201C52.3894 36.9201 41.5814 53.2827 21.8294 53.2827C15.744 53.2827 10.0907 51.5201 5.33337 48.4587C6.19737 48.5574 7.02937 48.5921 7.92804 48.5921C12.7627 48.6038 17.4604 46.9871 21.264 44.0027C19.0225 43.9622 16.8496 43.2226 15.0487 41.8874C13.2478 40.5521 11.9088 38.6878 11.2187 36.5547C11.8827 36.6534 12.5494 36.7201 13.248 36.7201C14.2107 36.7201 15.1787 36.5867 16.0774 36.3547C13.6447 35.8636 11.4573 34.545 9.88702 32.6232C8.31674 30.7015 7.46056 28.2951 7.46404 25.8134V25.6801C8.89604 26.4774 10.5574 26.9761 12.3174 27.0427C10.8429 26.063 9.63396 24.7335 8.79828 23.1729C7.9626 21.6122 7.52621 19.869 7.52804 18.0987C7.52804 16.1041 8.05871 14.2747 8.98937 12.6801C11.6884 16.0001 15.0547 18.7162 18.8703 20.6525C22.6858 22.5888 26.8655 23.702 31.1387 23.9201C30.9734 23.1201 30.872 22.2907 30.872 21.4587C30.8713 20.048 31.1487 18.6509 31.6882 17.3474C32.2278 16.0439 33.019 14.8595 34.0165 13.8619C35.0141 12.8643 36.1985 12.0732 37.502 11.5336C38.8055 10.9941 40.2026 10.7167 41.6134 10.7174C44.7067 10.7174 47.4987 12.0134 49.4614 14.1094C51.8661 13.6444 54.1721 12.7665 56.2774 11.5147C55.4758 13.9969 53.7967 16.1017 51.5547 17.4347C53.6875 17.1915 55.7719 16.6306 57.7387 15.7707C56.2697 17.9123 54.4494 19.7903 52.3547 21.3254Z" fill="#CCCCCC"/>
</svg>
