<svg width="81" height="81" viewBox="0 0 81 81" fill="none" xmlns="http://www.w3.org/2000/svg">
<path d="M62.6134 20.6117C64.3166 20.6117 65.9501 21.285 67.1545 22.4834C68.3588 23.6818 69.0354 25.3072 69.0354 27.0021V53.9978C69.0354 55.6926 68.3588 57.3181 67.1545 58.5165C65.9501 59.7149 64.3166 60.3882 62.6134 60.3882H18.3869C17.5435 60.3882 16.7084 60.2229 15.9293 59.9017C15.1501 59.5806 14.4422 59.1099 13.8458 58.5165C13.2495 57.9231 12.7764 57.2186 12.4537 56.4433C12.131 55.668 11.9648 54.837 11.9648 53.9978V27.0021C11.9648 25.3072 12.6415 23.6818 13.8458 22.4834C15.0502 21.285 16.6837 20.6117 18.3869 20.6117H62.6134ZM62.6134 24.8719H18.3869C17.8191 24.8719 17.2747 25.0964 16.8732 25.4958C16.4717 25.8953 16.2462 26.4371 16.2462 27.0021V53.9978C16.2462 55.1736 17.2052 56.1279 18.3869 56.1279H62.6134C63.1811 56.1279 63.7256 55.9035 64.1271 55.504C64.5285 55.1045 64.7541 54.5627 64.7541 53.9978V27.0021C64.7541 26.4371 64.5285 25.8953 64.1271 25.4958C63.7256 25.0964 63.1811 24.8719 62.6134 24.8719ZM25.5225 47.5932H55.4921C56.0344 47.5934 56.5565 47.7984 56.9528 48.1669C57.3491 48.5353 57.5901 49.0397 57.6271 49.5782C57.6641 50.1166 57.4943 50.6489 57.152 51.0676C56.8097 51.4863 56.3205 51.76 55.7832 51.8336L55.4921 51.8535H25.5225C24.9801 51.8533 24.458 51.6483 24.0617 51.2798C23.6654 50.9114 23.4244 50.407 23.3875 49.8685C23.3505 49.3301 23.5203 48.7978 23.8626 48.3791C24.2048 47.9605 24.6941 47.6867 25.2314 47.6131L25.5225 47.5932H55.4921H25.5225ZM53.3514 37.6527C54.1084 37.6527 54.8344 37.9519 55.3696 38.4845C55.9049 39.0172 56.2056 39.7396 56.2056 40.4928C56.2056 41.2461 55.9049 41.9685 55.3696 42.5011C54.8344 43.0338 54.1084 43.333 53.3514 43.333C52.5944 43.333 51.8684 43.0338 51.3331 42.5011C50.7978 41.9685 50.4971 41.2461 50.4971 40.4928C50.4971 39.7396 50.7978 39.0172 51.3331 38.4845C51.8684 37.9519 52.5944 37.6527 53.3514 37.6527ZM36.2402 37.6527C36.9972 37.6527 37.7232 37.9519 38.2584 38.4845C38.7937 39.0172 39.0944 39.7396 39.0944 40.4928C39.0944 41.2461 38.7937 41.9685 38.2584 42.5011C37.7232 43.0338 36.9972 43.333 36.2402 43.333C35.4832 43.333 34.7572 43.0338 34.2219 42.5011C33.6867 41.9685 33.3859 41.2461 33.3859 40.4928C33.3859 39.7396 33.6867 39.0172 34.2219 38.4845C34.7572 37.9519 35.4832 37.6527 36.2402 37.6527ZM27.6775 37.6527C28.4344 37.6527 29.1604 37.9519 29.6957 38.4845C30.231 39.0172 30.5317 39.7396 30.5317 40.4928C30.5317 41.2461 30.231 41.9685 29.6957 42.5011C29.1604 43.0338 28.4344 43.333 27.6775 43.333C26.9205 43.333 26.1945 43.0338 25.6592 42.5011C25.1239 41.9685 24.8232 41.2461 24.8232 40.4928C24.8232 39.7396 25.1239 39.0172 25.6592 38.4845C26.1945 37.9519 26.9205 37.6527 27.6775 37.6527ZM44.8029 37.6527C45.5599 37.6527 46.2859 37.9519 46.8212 38.4845C47.3564 39.0172 47.6572 39.7396 47.6572 40.4928C47.6572 41.2461 47.3564 41.9685 46.8212 42.5011C46.2859 43.0338 45.5599 43.333 44.8029 43.333C44.0459 43.333 43.3199 43.0338 42.7847 42.5011C42.2494 41.9685 41.9487 41.2461 41.9487 40.4928C41.9487 39.7396 42.2494 39.0172 42.7847 38.4845C43.3199 37.9519 44.0459 37.6527 44.8029 37.6527ZM23.3818 29.1322C24.1388 29.1322 24.8648 29.4314 25.4001 29.964C25.9353 30.4967 26.2361 31.2191 26.2361 31.9723C26.2361 32.7256 25.9353 33.448 25.4001 33.9806C24.8648 34.5133 24.1388 34.8125 23.3818 34.8125C22.6248 34.8125 21.8988 34.5133 21.3636 33.9806C20.8283 33.448 20.5276 32.7256 20.5276 31.9723C20.5276 31.2191 20.8283 30.4967 21.3636 29.964C21.8988 29.4314 22.6248 29.1322 23.3818 29.1322ZM31.9303 29.1322C32.6873 29.1322 33.4133 29.4314 33.9485 29.964C34.4838 30.4967 34.7845 31.2191 34.7845 31.9723C34.7845 32.7256 34.4838 33.448 33.9485 33.9806C33.4133 34.5133 32.6873 34.8125 31.9303 34.8125C31.1733 34.8125 30.4473 34.5133 29.912 33.9806C29.3767 33.448 29.076 32.7256 29.076 31.9723C29.076 31.2191 29.3767 30.4967 29.912 29.964C30.4473 29.4314 31.1733 29.1322 31.9303 29.1322ZM40.493 29.1322C41.25 29.1322 41.976 29.4314 42.5113 29.964C43.0465 30.4967 43.3472 31.2191 43.3472 31.9723C43.3472 32.7256 43.0465 33.448 42.5113 33.9806C41.976 34.5133 41.25 34.8125 40.493 34.8125C39.736 34.8125 39.01 34.5133 38.4747 33.9806C37.9395 33.448 37.6388 32.7256 37.6388 31.9723C37.6388 31.2191 37.9395 30.4967 38.4747 29.964C39.01 29.4314 39.736 29.1322 40.493 29.1322ZM49.0557 29.1322C49.8127 29.1322 50.5387 29.4314 51.074 29.964C51.6093 30.4967 51.91 31.2191 51.91 31.9723C51.91 32.7256 51.6093 33.448 51.074 33.9806C50.5387 34.5133 49.8127 34.8125 49.0557 34.8125C48.2987 34.8125 47.5728 34.5133 47.0375 33.9806C46.5022 33.448 46.2015 32.7256 46.2015 31.9723C46.2015 31.2191 46.5022 30.4967 47.0375 29.964C47.5728 29.4314 48.2987 29.1322 49.0557 29.1322ZM57.6185 29.1322C58.3755 29.1322 59.1014 29.4314 59.6367 29.964C60.172 30.4967 60.4727 31.2191 60.4727 31.9723C60.4727 32.7256 60.172 33.448 59.6367 33.9806C59.1014 34.5133 58.3755 34.8125 57.6185 34.8125C56.8615 34.8125 56.1355 34.5133 55.6002 33.9806C55.0649 33.448 54.7642 32.7256 54.7642 31.9723C54.7642 31.2191 55.0649 30.4967 55.6002 29.964C56.1355 29.4314 56.8615 29.1322 57.6185 29.1322Z" fill="#EC7979"/>
<circle cx="40.5001" cy="40.5" r="39.2765" stroke="#EC7979"/>
</svg>
