<svg width="64" height="64" viewBox="0 0 64 64" fill="none" xmlns="http://www.w3.org/2000/svg">
<path d="M24.1066 57.44C26.6666 58.2134 29.2533 58.6667 31.9999 58.6667C39.0724 58.6667 45.8551 55.8572 50.8561 50.8562C55.8571 45.8553 58.6666 39.0725 58.6666 32C58.6666 28.4981 57.9768 25.0305 56.6367 21.7951C55.2966 18.5598 53.3323 15.6201 50.8561 13.1439C48.3799 10.6676 45.4402 8.70338 42.2048 7.36325C38.9695 6.02313 35.5018 5.33337 31.9999 5.33337C28.498 5.33337 25.0304 6.02313 21.795 7.36325C18.5597 8.70338 15.62 10.6676 13.1437 13.1439C8.14277 18.1448 5.33325 24.9276 5.33325 32C5.33325 43.3334 12.4533 53.0667 22.5066 56.9067C22.2666 54.8267 22.0266 51.3867 22.5066 49.0134L25.5733 35.84C25.5733 35.84 24.7999 34.2934 24.7999 31.84C24.7999 28.16 27.0933 25.4134 29.7066 25.4134C31.9999 25.4134 33.0666 27.0934 33.0666 29.2534C33.0666 31.5467 31.5466 34.8267 30.7733 37.9734C30.3199 40.5867 32.1599 42.88 34.8266 42.88C39.5733 42.88 43.2533 37.8134 43.2533 30.6667C43.2533 24.2667 38.6666 19.8934 32.0799 19.8934C24.5599 19.8934 20.1333 25.4934 20.1333 31.3867C20.1333 33.68 20.8799 36 22.1066 37.52C22.3466 37.68 22.3466 37.8934 22.2666 38.2934L21.4933 41.2C21.4933 41.6534 21.1999 41.8134 20.7466 41.4934C17.3333 40 15.3599 35.1467 15.3599 31.2267C15.3599 22.8 21.3333 15.1467 32.8533 15.1467C42.0266 15.1467 49.1733 21.7334 49.1733 30.48C49.1733 39.6534 43.4933 47.0134 35.3599 47.0134C32.7733 47.0134 30.2399 45.6267 29.3333 44L27.5466 50.32C26.9333 52.6134 25.2533 55.68 24.1066 57.52V57.44Z" fill="#CCCCCC"/>
</svg>
